<svg width="1216" height="182" viewBox="0 0 1216 182" fill="none" xmlns="http://www.w3.org/2000/svg">
<path d="M88.8 7.99999H136.8V176H88.8V114.08H48V176H1.78814e-07V7.99999H48V67.52H88.8V7.99999ZM197.981 131.12C201.821 139.12 209.981 143.12 222.461 143.12C229.821 143.12 236.621 140.56 242.861 135.44L271.901 159.92C259.901 172.88 242.941 179.36 221.021 179.36C200.541 179.36 184.061 173.44 171.581 161.6C159.261 149.6 153.101 134.56 153.101 116.48C153.101 98.24 159.101 83.04 171.101 70.88C183.261 58.72 198.541 52.64 216.941 52.64C235.181 52.64 250.141 58.64 261.821 70.64C273.661 82.48 279.581 97.44 279.581 115.52C279.581 120.8 278.941 126 277.661 131.12H197.981ZM197.261 102.56H237.581C234.861 92.96 228.381 88.16 218.141 88.16C207.741 88.16 200.781 92.96 197.261 102.56ZM374.987 56H419.387V176H374.987V165.2C367.307 174.64 356.587 179.36 342.827 179.36C326.667 179.36 313.467 173.36 303.227 161.36C292.987 149.36 287.867 134.24 287.867 116C287.867 97.76 292.987 82.64 303.227 70.64C313.467 58.64 326.667 52.64 342.827 52.64C356.587 52.64 367.307 57.36 374.987 66.8V56ZM338.027 132.08C342.027 136.4 347.227 138.56 353.627 138.56C360.027 138.56 365.147 136.4 368.987 132.08C372.987 127.76 374.987 122.4 374.987 116C374.987 109.6 372.987 104.24 368.987 99.92C365.147 95.6 360.027 93.44 353.627 93.44C347.227 93.44 342.027 95.6 338.027 99.92C334.187 104.24 332.267 109.6 332.267 116C332.267 122.4 334.187 127.76 338.027 132.08ZM438.694 176V0.799995H483.094V176H438.694ZM581.409 98.24H556.209V124.16C556.209 128.16 557.169 131.12 559.089 133.04C561.009 134.96 563.809 136.08 567.489 136.4C571.329 136.56 575.969 136.48 581.409 136.16V176C556.289 179.52 538.369 177.36 527.649 169.52C517.089 161.68 511.809 147.36 511.809 126.56V98.24H495.009V56H511.809V35.6L556.209 22.4V56H581.409V98.24ZM673.691 52.64C686.811 52.64 697.291 57.2 705.131 66.32C713.131 75.28 717.131 88.72 717.131 106.64V176H672.731V111.44C672.731 100.72 667.771 95.36 657.851 95.36C652.571 95.36 648.491 97.04 645.611 100.4C642.891 103.76 641.531 108.4 641.531 114.32V176H597.131V7.99999H641.531V67.76C648.891 57.68 659.611 52.64 673.691 52.64ZM793.509 179.36C775.109 179.36 759.829 173.36 747.669 161.36C735.509 149.2 729.429 134.08 729.429 116C729.429 97.92 735.509 82.88 747.669 70.88C759.829 58.72 775.109 52.64 793.509 52.64C805.349 52.64 816.149 55.52 825.909 61.28C835.829 66.88 843.429 74.48 848.709 84.08L811.269 105.44C807.269 98.72 801.349 95.36 793.509 95.36C787.909 95.36 783.189 97.36 779.349 101.36C775.669 105.2 773.829 110.08 773.829 116C773.829 121.92 775.669 126.88 779.349 130.88C783.189 134.72 787.909 136.64 793.509 136.64C801.829 136.64 807.749 133.2 811.269 126.32L848.709 147.92C843.429 157.68 835.829 165.36 825.909 170.96C816.149 176.56 805.349 179.36 793.509 179.36ZM939.128 56H983.528V176H939.128V165.2C931.448 174.64 920.728 179.36 906.968 179.36C890.808 179.36 877.608 173.36 867.368 161.36C857.128 149.36 852.008 134.24 852.008 116C852.008 97.76 857.128 82.64 867.368 70.64C877.608 58.64 890.808 52.64 906.968 52.64C920.728 52.64 931.448 57.36 939.128 66.8V56ZM902.168 132.08C906.168 136.4 911.368 138.56 917.768 138.56C924.168 138.56 929.288 136.4 933.128 132.08C937.128 127.76 939.128 122.4 939.128 116C939.128 109.6 937.128 104.24 933.128 99.92C929.288 95.6 924.168 93.44 917.768 93.44C911.368 93.44 906.168 95.6 902.168 99.92C898.328 104.24 896.408 109.6 896.408 116C896.408 122.4 898.328 127.76 902.168 132.08ZM1047.23 79.28C1049.47 71.12 1053.87 64.8 1060.43 60.32C1066.99 55.84 1074.59 53.6 1083.23 53.6V101.6C1073.63 100.32 1065.23 102.24 1058.03 107.36C1050.83 112.32 1047.23 120.32 1047.23 131.36V176H1002.83V56H1047.23V79.28ZM1133.61 131.12C1137.45 139.12 1145.61 143.12 1158.09 143.12C1165.45 143.12 1172.25 140.56 1178.49 135.44L1207.53 159.92C1195.53 172.88 1178.57 179.36 1156.65 179.36C1136.17 179.36 1119.69 173.44 1107.21 161.6C1094.89 149.6 1088.73 134.56 1088.73 116.48C1088.73 98.24 1094.73 83.04 1106.73 70.88C1118.89 58.72 1134.17 52.64 1152.57 52.64C1170.81 52.64 1185.77 58.64 1197.45 70.64C1209.29 82.48 1215.21 97.44 1215.21 115.52C1215.21 120.8 1214.57 126 1213.29 131.12H1133.61ZM1132.89 102.56H1173.21C1170.49 92.96 1164.01 88.16 1153.77 88.16C1143.37 88.16 1136.41 92.96 1132.89 102.56Z" fill="#590000"/>
</svg>
