<svg width="18" height="22" viewBox="0 0 18 22" fill="none" xmlns="http://www.w3.org/2000/svg">
<path fill-rule="evenodd" clip-rule="evenodd" d="M9 0C11.3869 0 13.6761 0.948211 15.364 2.63604C17.0518 4.32387 18 6.61305 18 9C18 12.074 16.324 14.59 14.558 16.395C13.6757 17.2871 12.7129 18.0958 11.682 18.811L11.256 19.101L11.056 19.234L10.679 19.474L10.343 19.679L9.927 19.921C9.64463 20.0822 9.32513 20.1669 9 20.1669C8.67487 20.1669 8.35537 20.0822 8.073 19.921L7.657 19.679L7.137 19.359L6.945 19.234L6.535 18.961C5.42283 18.2085 4.3869 17.3491 3.442 16.395C1.676 14.589 0 12.074 0 9C0 6.61305 0.948211 4.32387 2.63604 2.63604C4.32387 0.948211 6.61305 0 9 0ZM9 2C7.14348 2 5.36301 2.7375 4.05025 4.05025C2.7375 5.36301 2 7.14348 2 9C2 11.322 3.272 13.36 4.871 14.996C5.55853 15.692 6.30166 16.3308 7.093 16.906L7.551 17.232C7.699 17.3353 7.84133 17.4313 7.978 17.52L8.368 17.77L8.711 17.979L9 18.148L9.455 17.879L9.822 17.649C10.0173 17.525 10.2263 17.386 10.449 17.232L10.907 16.906C11.6983 16.3308 12.4415 15.692 13.129 14.996C14.728 13.361 16 11.322 16 9C16 7.14348 15.2625 5.36301 13.9497 4.05025C12.637 2.7375 10.8565 2 9 2ZM9 5C10.0609 5 11.0783 5.42143 11.8284 6.17157C12.5786 6.92172 13 7.93913 13 9C13 10.0609 12.5786 11.0783 11.8284 11.8284C11.0783 12.5786 10.0609 13 9 13C7.93913 13 6.92172 12.5786 6.17157 11.8284C5.42143 11.0783 5 10.0609 5 9C5 7.93913 5.42143 6.92172 6.17157 6.17157C6.92172 5.42143 7.93913 5 9 5ZM9 7C8.46957 7 7.96086 7.21071 7.58579 7.58579C7.21071 7.96086 7 8.46957 7 9C7 9.53043 7.21071 10.0391 7.58579 10.4142C7.96086 10.7893 8.46957 11 9 11C9.53043 11 10.0391 10.7893 10.4142 10.4142C10.7893 10.0391 11 9.53043 11 9C11 8.46957 10.7893 7.96086 10.4142 7.58579C10.0391 7.21071 9.53043 7 9 7Z" fill="black"/>
</svg>
